<mxfile host="app.diagrams.net" modified="2023-04-29T19:57:51.054Z" agent="Mozilla/5.0 (Windows NT 10.0; Win64; x64) AppleWebKit/537.36 (KHTML, like Gecko) Chrome/112.0.0.0 Safari/537.36" etag="wF1v6t-qumJ-pB9xgKyr" version="21.2.3" type="github">
  <diagram name="API" id="iPEXcFQ-3JGSXOSdobeL">
    <mxGraphModel dx="1772" dy="1254" grid="0" gridSize="10" guides="1" tooltips="1" connect="1" arrows="1" fold="1" page="0" pageScale="1" pageWidth="827" pageHeight="1169" math="0" shadow="0">
      <root>
        <mxCell id="0" />
        <mxCell id="1" parent="0" />
        <mxCell id="mcio24Wke3DfI12x5nmS-2" style="edgeStyle=none;curved=1;rounded=0;orthogonalLoop=1;jettySize=auto;html=1;exitX=1;exitY=0.5;exitDx=0;exitDy=0;fontSize=12;startSize=8;endSize=8;" edge="1" parent="1" source="mcio24Wke3DfI12x5nmS-1">
          <mxGeometry relative="1" as="geometry">
            <mxPoint x="-19" y="211" as="targetPoint" />
          </mxGeometry>
        </mxCell>
        <mxCell id="mcio24Wke3DfI12x5nmS-1" value="API DA TWITCH" style="rounded=0;whiteSpace=wrap;html=1;fontSize=16;" vertex="1" parent="1">
          <mxGeometry x="-262" y="181" width="171" height="60" as="geometry" />
        </mxCell>
        <mxCell id="mcio24Wke3DfI12x5nmS-5" style="edgeStyle=none;curved=1;rounded=0;orthogonalLoop=1;jettySize=auto;html=1;exitX=0.25;exitY=1;exitDx=0;exitDy=0;fontSize=12;startSize=8;endSize=8;entryX=0.25;entryY=0;entryDx=0;entryDy=0;" edge="1" parent="1" source="mcio24Wke3DfI12x5nmS-3" target="mcio24Wke3DfI12x5nmS-6">
          <mxGeometry relative="1" as="geometry">
            <mxPoint x="17" y="312" as="targetPoint" />
          </mxGeometry>
        </mxCell>
        <mxCell id="mcio24Wke3DfI12x5nmS-9" style="edgeStyle=none;curved=1;rounded=0;orthogonalLoop=1;jettySize=auto;html=1;exitX=1;exitY=0.5;exitDx=0;exitDy=0;fontSize=12;startSize=8;endSize=8;" edge="1" parent="1" source="mcio24Wke3DfI12x5nmS-3">
          <mxGeometry relative="1" as="geometry">
            <mxPoint x="179" y="211" as="targetPoint" />
          </mxGeometry>
        </mxCell>
        <mxCell id="mcio24Wke3DfI12x5nmS-3" value="AUTH API" style="rounded=0;whiteSpace=wrap;html=1;fontSize=16;" vertex="1" parent="1">
          <mxGeometry x="-18" y="181" width="120" height="60" as="geometry" />
        </mxCell>
        <mxCell id="mcio24Wke3DfI12x5nmS-7" style="edgeStyle=none;curved=1;rounded=0;orthogonalLoop=1;jettySize=auto;html=1;exitX=0.75;exitY=0;exitDx=0;exitDy=0;entryX=0.75;entryY=1;entryDx=0;entryDy=0;fontSize=12;startSize=8;endSize=8;" edge="1" parent="1" source="mcio24Wke3DfI12x5nmS-6" target="mcio24Wke3DfI12x5nmS-3">
          <mxGeometry relative="1" as="geometry" />
        </mxCell>
        <mxCell id="mcio24Wke3DfI12x5nmS-6" value="Bearer Token" style="rounded=0;whiteSpace=wrap;html=1;fontSize=16;" vertex="1" parent="1">
          <mxGeometry x="-18" y="322" width="120" height="60" as="geometry" />
        </mxCell>
        <mxCell id="mcio24Wke3DfI12x5nmS-11" style="edgeStyle=none;curved=1;rounded=0;orthogonalLoop=1;jettySize=auto;html=1;exitX=1;exitY=0.5;exitDx=0;exitDy=0;fontSize=12;startSize=8;endSize=8;entryX=0;entryY=0.5;entryDx=0;entryDy=0;" edge="1" parent="1" source="mcio24Wke3DfI12x5nmS-10" target="mcio24Wke3DfI12x5nmS-12">
          <mxGeometry relative="1" as="geometry">
            <mxPoint x="366" y="211" as="targetPoint" />
          </mxGeometry>
        </mxCell>
        <mxCell id="mcio24Wke3DfI12x5nmS-18" style="edgeStyle=none;curved=1;rounded=0;orthogonalLoop=1;jettySize=auto;html=1;exitX=1;exitY=0.5;exitDx=0;exitDy=0;entryX=0;entryY=0.5;entryDx=0;entryDy=0;fontSize=12;startSize=8;endSize=8;" edge="1" parent="1" source="mcio24Wke3DfI12x5nmS-10" target="mcio24Wke3DfI12x5nmS-13">
          <mxGeometry relative="1" as="geometry" />
        </mxCell>
        <mxCell id="mcio24Wke3DfI12x5nmS-19" style="edgeStyle=none;curved=1;rounded=0;orthogonalLoop=1;jettySize=auto;html=1;exitX=1;exitY=0.5;exitDx=0;exitDy=0;entryX=0;entryY=0.5;entryDx=0;entryDy=0;fontSize=12;startSize=8;endSize=8;" edge="1" parent="1" source="mcio24Wke3DfI12x5nmS-10" target="mcio24Wke3DfI12x5nmS-14">
          <mxGeometry relative="1" as="geometry" />
        </mxCell>
        <mxCell id="mcio24Wke3DfI12x5nmS-20" style="edgeStyle=none;curved=1;rounded=0;orthogonalLoop=1;jettySize=auto;html=1;exitX=1;exitY=0.5;exitDx=0;exitDy=0;entryX=0;entryY=0.5;entryDx=0;entryDy=0;fontSize=12;startSize=8;endSize=8;" edge="1" parent="1" source="mcio24Wke3DfI12x5nmS-10" target="mcio24Wke3DfI12x5nmS-15">
          <mxGeometry relative="1" as="geometry" />
        </mxCell>
        <mxCell id="mcio24Wke3DfI12x5nmS-21" style="edgeStyle=none;curved=1;rounded=0;orthogonalLoop=1;jettySize=auto;html=1;exitX=1;exitY=0.5;exitDx=0;exitDy=0;entryX=0;entryY=0.5;entryDx=0;entryDy=0;fontSize=12;startSize=8;endSize=8;" edge="1" parent="1" source="mcio24Wke3DfI12x5nmS-10" target="mcio24Wke3DfI12x5nmS-16">
          <mxGeometry relative="1" as="geometry" />
        </mxCell>
        <mxCell id="mcio24Wke3DfI12x5nmS-22" style="edgeStyle=none;curved=1;rounded=0;orthogonalLoop=1;jettySize=auto;html=1;exitX=1;exitY=0.5;exitDx=0;exitDy=0;entryX=0;entryY=0.5;entryDx=0;entryDy=0;fontSize=12;startSize=8;endSize=8;" edge="1" parent="1" source="mcio24Wke3DfI12x5nmS-10" target="mcio24Wke3DfI12x5nmS-17">
          <mxGeometry relative="1" as="geometry" />
        </mxCell>
        <mxCell id="mcio24Wke3DfI12x5nmS-10" value="Endpoints" style="rounded=0;whiteSpace=wrap;html=1;fontSize=16;" vertex="1" parent="1">
          <mxGeometry x="180" y="181" width="120" height="60" as="geometry" />
        </mxCell>
        <mxCell id="mcio24Wke3DfI12x5nmS-12" value="Get Games" style="rounded=0;whiteSpace=wrap;html=1;fontSize=16;" vertex="1" parent="1">
          <mxGeometry x="400" y="-7" width="120" height="60" as="geometry" />
        </mxCell>
        <mxCell id="mcio24Wke3DfI12x5nmS-13" value="Get Streams" style="rounded=0;whiteSpace=wrap;html=1;fontSize=16;" vertex="1" parent="1">
          <mxGeometry x="400" y="66" width="120" height="60" as="geometry" />
        </mxCell>
        <mxCell id="mcio24Wke3DfI12x5nmS-14" value="Get Channel Information" style="rounded=0;whiteSpace=wrap;html=1;fontSize=16;" vertex="1" parent="1">
          <mxGeometry x="400" y="139" width="120" height="60" as="geometry" />
        </mxCell>
        <mxCell id="mcio24Wke3DfI12x5nmS-15" value="Get Channel Followers" style="rounded=0;whiteSpace=wrap;html=1;fontSize=16;" vertex="1" parent="1">
          <mxGeometry x="400" y="216" width="120" height="60" as="geometry" />
        </mxCell>
        <mxCell id="mcio24Wke3DfI12x5nmS-16" value="Get Users" style="rounded=0;whiteSpace=wrap;html=1;fontSize=16;" vertex="1" parent="1">
          <mxGeometry x="400" y="293" width="120" height="60" as="geometry" />
        </mxCell>
        <mxCell id="mcio24Wke3DfI12x5nmS-17" value="Get Users Followers" style="rounded=0;whiteSpace=wrap;html=1;fontSize=16;" vertex="1" parent="1">
          <mxGeometry x="400" y="367" width="120" height="60" as="geometry" />
        </mxCell>
      </root>
    </mxGraphModel>
  </diagram>
</mxfile>
